# xmcd
#
# Track frame offsets: 
#        150
#        12682
#        26825
#        41855
#        53427
#        68025
#        79402
#        91410
#        101007
#        114217
#        129482
#        142637
#        157200
#        168640
#        184605
#        200912
#
# Disc length: 2929 seconds
#
# Revision: 1
# Processed by: cddbd v1.5.2PL0 Copyright (c) Steve Scherf et al.
# Submitted via: ExactAudioCopy v0.95b4
#
DISCID=df0b6f10
DTITLE=Ozzie Nelson and His Orchestra - Head Over Heels in Love
DYEAR=1939
DGENRE=Big Band
TTITLE0=Head over Heels in Love
TTITLE1=I Don't Want to Set the World on Fire
TTITLE2=Wave the Stick Blues
TTITLE3=Breathless
TTITLE4=Between a Kiss and a Sigh
TTITLE5=Everyone But Me
TTITLE6=I Must See Annie Tonight
TTITLE7=Gee, But It's Great to Meet a Friend (From Your Home Town)
TTITLE8=Let's Have Another Cigarette
TTITLE9=Roses in December
TTITLE10=You and I Know
TTITLE11=Old Curiosity Shop
TTITLE12=Yes, Suh!
TTITLE13=Have a Heart
TTITLE14=I've Got My Love to Keep Me Warm
TTITLE15=Two Sleepy People
EXTD=
EXTT0=
EXTT1=
EXTT2=
EXTT3=
EXTT4=
EXTT5=
EXTT6=
EXTT7=
EXTT8=
EXTT9=
EXTT10=
EXTT11=
EXTT12=
EXTT13=
EXTT14=
EXTT15=
PLAYORDER=
